Coordinates
version=1
nRows=21
nColumns=12
inDegrees=yes

Units are S.I. units (second, meters, Newtons, ...)
Angles are in degrees

endheader
time	SC_y	SC_z	SC_x	AC_y	AC_z	AC_x	GH_y	GH_z	GH_yy	EL_x	PS_y
       0.0              -23.22          3.405          10.07           50.5          6.665         -5.843          69.43          24.03         -144.3           46.0          108.2
    0.0418              -23.23          3.406          10.07           50.5          6.664         -5.845           69.4          24.04         -144.3          45.99          108.2
   0.08361              -23.23          3.407          10.07          50.51          6.662         -5.847          69.38          24.04         -144.3          45.99          108.2
    0.1254              -23.23          3.408          10.07          50.51           6.66         -5.849          69.35          24.05         -144.3          45.98          108.2
    0.1672              -23.24          3.409          10.08          50.51          6.659         -5.851          69.32          24.06         -144.3          45.98          108.2
     0.209              -23.24          3.411          10.08          50.51          6.657         -5.854          69.29          24.06         -144.3          45.97          108.2
    0.2508              -23.25          3.412          10.08          50.51          6.655         -5.856          69.26          24.07         -144.3          45.97          108.2
    0.2926              -23.25          3.414          10.08          50.52          6.653         -5.859          69.23          24.08         -144.3          45.96          108.2
    0.3344              -23.26          3.415          10.08          50.52          6.651         -5.862          69.19          24.08         -144.2          45.95          108.2
    0.3762              -23.27          3.417          10.08          50.52          6.648         -5.865          69.15          24.09         -144.2          45.95          108.2
     0.418              -23.27          3.419          10.08          50.52          6.646         -5.869          69.11           24.1         -144.2          45.94          108.2
    0.4598              -23.28           3.42          10.08          50.53          6.643         -5.872          69.07          24.11         -144.2          45.93          108.2
    0.5017              -23.29          3.423          10.08          50.53           6.64         -5.876          69.02          24.12         -144.2          45.92          108.2
    0.5435              -23.29          3.425          10.09          50.53          6.636         -5.881          68.97          24.13         -144.2          45.91          108.2
    0.5853               -23.3          3.427          10.09          50.53          6.633         -5.885          68.91          24.15         -144.2           45.9          108.2
    0.6271              -23.31           3.43          10.09          50.54          6.629          -5.89          68.85          24.16         -144.2          45.89          108.2
    0.6689              -23.32          3.433          10.09          50.54          6.625         -5.896          68.78          24.17         -144.2          45.88          108.2
    0.7107              -23.33          3.436          10.09          50.55          6.621         -5.902          68.71          24.19         -144.2          45.86          108.2
    0.7525              -23.35          3.439           10.1          50.55          6.616         -5.908          68.63          24.21         -144.1          45.85          108.2
    0.7943              -23.36          3.443           10.1          50.56           6.61         -5.915          68.54          24.22         -144.1          45.83          108.2
    0.8361              -23.38          3.447           10.1          50.56          6.604         -5.923          68.45          24.25         -144.1          45.81          108.2
